<?xml version="1.0" encoding="utf-8"?>
<!-- Generator: Adobe Illustrator 18.0.0, SVG Export Plug-In . SVG Version: 6.00 Build 0)  -->
<!DOCTYPE svg PUBLIC "-//W3C//DTD SVG 1.1//EN" "http://www.w3.org/Graphics/SVG/1.1/DTD/svg11.dtd">
<svg version="1.1" id="Layer_1" xmlns="http://www.w3.org/2000/svg" xmlns:xlink="http://www.w3.org/1999/xlink" x="0px" y="0px"
	 viewBox="0 0 64 64" enable-background="new 0 0 64 64" xml:space="preserve">
<g>
	<g>
		<g>
			<path fill="#FCDA4F" d="M32,0c17.7,0,32,14.3,32,32S49.7,64,32,64S0,49.7,0,32S14.3,0,32,0z"/>
		</g>
	</g>
	<g>
		<g>
			<path fill="#9B655C" d="M47,18.5c0-2.1-1.5-3.5-3.6-3.5h-26C15,15,13,16.7,13,19.2V27h34V18.5z"/>
		</g>
	</g>
	<g>
		<g>
			<rect x="16" y="18.5" fill="#CFF28B" width="29" height="18.5"/>
		</g>
	</g>
	<g>
		<g>
			<g>
				<path fill="#4EB550" d="M38.4,19.8H22.6h-5.3v5.3v5.3v5.3h5.3h15.8h5.3v-5.3v-5.3v-5.3H38.4z M42.4,30.6
					c-1.8,0.5-3.1,1.8-3.7,3.5H22.3c-0.5-1.7-1.9-3.1-3.7-3.5v-5.7c1.8-0.5,3.1-1.8,3.7-3.5h16.4c0.5,1.7,1.9,3.1,3.7,3.5V30.6z"/>
			</g>
		</g>
		<g>
			<g>
				<ellipse fill="#4EB550" cx="30.5" cy="27.7" rx="5.3" ry="5.3"/>
			</g>
		</g>
	</g>
	<g>
		<g>
			<path fill="none" stroke="#000000" stroke-width="0.5" stroke-linecap="round" stroke-linejoin="round" d="M31.7,26.4"/>
		</g>
	</g>
	<g>
		<g>
			<path fill="#C18476" d="M13,19L13,19c0,2.5,1.9,4.5,4.3,4.5h27.1c2.5,0,4.5,2.1,4.5,4.7v16.3c0,2.6-2.3,4.4-4.8,4.4H17.9
				c-2.5,0-4.9-1.8-4.9-4.4V19z"/>
		</g>
	</g>
	<g>
		<g>
			<path fill="#9B655C" d="M51,38.6c0,0.8-0.6,1.4-1.3,1.4h-5.3c-2,0-3.6-1.8-3.6-3.9v0c0-2.2,1.6-3.9,3.6-3.9h5.3
				c0.7,0,1.3,0.6,1.3,1.4V38.6z"/>
		</g>
	</g>
	<g>
		<g>
			<circle fill="#D3E2F4" cx="45.1" cy="36.1" r="1.9"/>
		</g>
	</g>
	<g>
		<g>
			<g>
				<path fill="#DDB699" d="M44,27.5h-2c-0.3,0-0.5-0.2-0.5-0.5s0.2-0.5,0.5-0.5h2c0.3,0,0.5,0.2,0.5,0.5S44.3,27.5,44,27.5z
					 M39,27.5h-2c-0.3,0-0.5-0.2-0.5-0.5s0.2-0.5,0.5-0.5h2c0.3,0,0.5,0.2,0.5,0.5S39.3,27.5,39,27.5z M34,27.5h-2
					c-0.3,0-0.5-0.2-0.5-0.5s0.2-0.5,0.5-0.5h2c0.3,0,0.5,0.2,0.5,0.5S34.3,27.5,34,27.5z M29,27.5h-2c-0.3,0-0.5-0.2-0.5-0.5
					s0.2-0.5,0.5-0.5h2c0.3,0,0.5,0.2,0.5,0.5S29.3,27.5,29,27.5z M24,27.5h-2c-0.3,0-0.5-0.2-0.5-0.5s0.2-0.5,0.5-0.5h2
					c0.3,0,0.5,0.2,0.5,0.5S24.3,27.5,24,27.5z M19,27.5h-2c-0.3,0-0.5-0.2-0.5-0.5s0.2-0.5,0.5-0.5h2c0.3,0,0.5,0.2,0.5,0.5
					S19.3,27.5,19,27.5z"/>
			</g>
		</g>
	</g>
	<g>
		<g>
			<g>
				<path fill="#DDB699" d="M44,46h-2c-0.3,0-0.5-0.2-0.5-0.5S41.7,45,42,45h2c0.3,0,0.5,0.2,0.5,0.5S44.3,46,44,46z M39,46h-2
					c-0.3,0-0.5-0.2-0.5-0.5S36.7,45,37,45h2c0.3,0,0.5,0.2,0.5,0.5S39.3,46,39,46z M34,46h-2c-0.3,0-0.5-0.2-0.5-0.5S31.7,45,32,45
					h2c0.3,0,0.5,0.2,0.5,0.5S34.3,46,34,46z M29,46h-2c-0.3,0-0.5-0.2-0.5-0.5S26.7,45,27,45h2c0.3,0,0.5,0.2,0.5,0.5
					S29.3,46,29,46z M24,46h-2c-0.3,0-0.5-0.2-0.5-0.5S21.7,45,22,45h2c0.3,0,0.5,0.2,0.5,0.5S24.3,46,24,46z M19,46h-2
					c-0.3,0-0.5-0.2-0.5-0.5S16.7,45,17,45h2c0.3,0,0.5,0.2,0.5,0.5S19.3,46,19,46z"/>
			</g>
		</g>
	</g>
</g>
</svg>
